# xmcd
#
# Track frame offsets:
#	182
#	10957
#	33715
#	52550
#	64085
#	74960
#	86830
#	98785
#	114377
#	125862
#	138570
#	154195
#	164675
#	178120
#	194062
#	209355
#
# Disc length: 2946 seconds
#
# Revision: 3
# Processed by: cddbd v1.5.2PL0 Copyright (c) Steve Scherf et al.
# Submitted via: jack 3.1.1
#
DISCID=f80b8010
DTITLE=Various Artist - 16 All Time Blues Hits 3
DYEAR=1991
DGENRE=Blues
TTITLE0=Howlin' Wolf - Little Red Rooster
TTITLE1=John Mayall - Baby What You Want Me To Do
TTITLE2=Muddy Waters - I Got My Moyo Working
TTITLE3=Eric Clapton - Freight Loader
TTITLE4=Elmore James - Coming Home
TTITLE5=Johnny Guitar Watson - One Room Country Shack
TTITLE6=John Lee Hooker - Frisco
TTITLE7=Mike Bloomfield - Don't You Lie To Me
TTITLE8=B. B. King - Every Day I Have The Blues
TTITLE9=Little Walter - Everything's Gonna Be Alright
TTITLE10=Muddy Waters - I Can't Be Satisfied
TTITLE11=Elmore James - Take Me Where You Go
TTITLE12=John Lee Hooker - Ground Hog Blues
TTITLE13=Howlin' Wolf - Blue Bird
TTITLE14=Sonny Boy Williamson - Cross My Heart
TTITLE15=Big Joe Williams - Sloppy Drunk Blues
EXTD=All Time Music\nATM 071\n\n10 CD-Set Blues Sampler
EXTT0=
EXTT1=
EXTT2=
EXTT3=
EXTT4=
EXTT5=
EXTT6=
EXTT7=
EXTT8=
EXTT9=
EXTT10=
EXTT11=
EXTT12=
EXTT13=
EXTT14=
EXTT15=
PLAYORDER=
